<svg width="8" height="7" viewBox="0 0 8 7" fill="none" xmlns="http://www.w3.org/2000/svg">
<path fill-rule="evenodd" clip-rule="evenodd" d="M3.9651 0.200684C4.13432 0.200684 4.27151 0.337871 4.27151 0.507097V3.06054H6.82496C6.99418 3.06054 7.13137 3.19773 7.13137 3.36695C7.13137 3.53618 6.99418 3.67337 6.82496 3.67337H4.27151V6.22681C4.27151 6.39603 4.13432 6.53323 3.9651 6.53323C3.79588 6.53323 3.65869 6.39603 3.65869 6.22681V3.67337H1.10524C0.936016 3.67337 0.798828 3.53618 0.798828 3.36695C0.798828 3.19773 0.936016 3.06054 1.10524 3.06054H3.65869V0.507097C3.65869 0.337871 3.79588 0.200684 3.9651 0.200684Z" fill="#22272F"/>
</svg>
